<svg width="625" height="163" viewBox="0 0 625 163" xmlns="http://www.w3.org/2000/svg"><title>Patter – Inline@2x</title><g fill="#1FB593"><path d="M78.951 160.783c-43.5-.5-78.5-36.7-78-80.8.5-44.1 36.3-79.5 79.9-78.9 43.6.6 78.5 36.7 78 80.8-.5 44.1-36.3 79.5-79.9 78.9zm1.8-149.3c-37.8-.4-68.9 30.3-69.5 68.7-.5 38.3 29.9 69.7 67.9 70.3 37.9.5 68.9-30.3 69.5-68.7.5-38.4-30-69.9-67.9-70.3zm42 111.5l-37.4-.4.1-10.4 37.4.4-.1 10.4zm-87.3-9.2l-7.2-7.5 35.1-34.7-8.1-8.4-1.3 1.3-7.2-7.5 30.3-29.9 7.2 7.5-1.3 1.3 26.1 26.9 1.5-1.5 7.2 7.5-30.3 29.9-7.2-7.5 1.1-1.1-10.8-11.2-35.1 34.9zm27.7-57.2l24.9 25.8 13-12.8-24.9-25.8-13 12.8z" stroke-width="1.584" stroke="#1FB593"/><path d="M592.5 38.1v21.8c4.9-9.4 12.6-15 24.2-15 2.7 0 5.4.3 8.1 1v18.9c-3-.7-6-1.1-9.1-1.2-16.5 0-22.6 10.4-22.6 27.8v37.7h-17.8V53.9c7.8-7.5 13.5-12.7 17.2-15.8zm-67.6 6.8c25.5 0 40 18 40 43.5v5.1h-63.3v.2c1.6 14 12.9 20.9 24.7 20.9 9.4 0 18.3-3.9 24.7-10.7l8.4 14.3a45.64 45.64 0 0 1-33 13c-26.4 0-43-17.5-43-42.9.2-24.1 16.1-43.4 41.5-43.4zm-.3 15.8c-13 0-20.6 7.4-22.7 19.2h43.6c-1.2-11.3-8.1-19.2-20.9-19.2zm-85.889-19.31v5.5h-37.4v-20.4c-3.3 2.5-9.2 7.9-17.7 16v4.4h-15.7v15.2h15.6v43.2c0 18.1 8.2 24.9 23.4 24.9 5.4 0 10.8-.8 15.9-2.4v-16.3c-4.2.8-8.4 1.2-12.7 1.3-6.4 0-8.9-3-8.9-8.7v-42h37.6v43.2c0 18.1 8.2 24.9 23.4 24.9 5.4 0 10.8-.8 15.9-2.4v-16.3c-4.2.8-8.4 1.2-12.7 1.3-6.4 0-8.9-3-8.9-8.7v-42h21.7v-15.2h-21.7v-21.3c-2.8 2-8.8 7.2-17.8 15.8zM328 44.9c23.2 0 34.4 11 34.4 32.1v52.2h-17.7v-11.3c-4.9 7.6-13.8 13-26.2 13-17.1 0-27.8-10.7-27.8-25.5 0-15.2 11.2-24.2 26.4-25.5l22.9-2.3c3.5-.3 4.8-1.5 4.8-3.8V72c0-6.4-5.4-10.9-16.3-10.9-10 0-18.4 3.6-20.9 12.7L293 64.7c4.2-12.2 15.9-19.8 35-19.8zm16.6 46.3l-23.7 3c-8.1 1-11.8 5.3-11.8 10.7 0 6.3 4.6 10.5 13.5 10.5 13.7 0 22.1-9.7 22.1-19.4l-.1-4.8zM199.2 54.1c8.7-8.3 14.6-13.6 17.7-15.8v20.3c6.1-8.2 15.5-13.7 28.3-13.7 21.4 0 38.5 16.2 38.5 43.2 0 27-17.1 43.2-38.4 43.2-11.2.2-21.7-4.9-28.5-13.8v44.7h-17.6V54.1zm66.3 34c0-15.5-9.9-26.2-24.7-26.2-14.8 0-24.7 10.2-24.7 26.2s10.1 26.2 24.7 26.2 24.7-10.7 24.7-26.2z"/></g></svg>